<?xml version="1.0" encoding="UTF-8"?>
<svg xmlns="http://www.w3.org/2000/svg" xmlns:xlink="http://www.w3.org/1999/xlink" width="25px" height="25px" viewBox="0 0 25 25" version="1.1">
<g id="surface1">
<path style=" stroke:none;fill-rule:nonzero;fill:rgb(0%,0%,0%);fill-opacity:1;" d="M 7.257812 7.257812 C 7.40625 7.113281 7.605469 7.03125 7.8125 7.03125 C 8.019531 7.03125 8.21875 7.113281 8.367188 7.257812 L 12.5 11.394531 L 16.632812 7.257812 C 16.941406 6.953125 17.433594 6.953125 17.742188 7.257812 C 18.046875 7.566406 18.046875 8.058594 17.742188 8.367188 L 13.605469 12.5 L 17.742188 16.632812 C 18.046875 16.941406 18.046875 17.433594 17.742188 17.742188 C 17.433594 18.046875 16.941406 18.046875 16.632812 17.742188 L 12.5 13.605469 L 8.367188 17.742188 C 8.058594 18.046875 7.566406 18.046875 7.257812 17.742188 C 6.953125 17.433594 6.953125 16.941406 7.257812 16.632812 L 11.394531 12.5 L 7.257812 8.367188 C 7.113281 8.21875 7.03125 8.019531 7.03125 7.8125 C 7.03125 7.605469 7.113281 7.40625 7.257812 7.257812 Z M 7.257812 7.257812 "/>
</g>
</svg>
